<?xml version="1.0" encoding="UTF-8"?>
<svg version="1.1" xmlns="http://www.w3.org/2000/svg" width="1024" height="1024">
<path d="M0 0 C9.65746403 1.81077451 16.73264136 3.82747156 23.8125 10.75 C27.87692787 16.78857855 29.7924992 22.53719859 28.5546875 29.8125 C26.1851606 39.15711314 20.38555588 44.09973149 12.28125 49.04980469 C9.7804337 50.52253756 7.26890671 51.97637195 4.75634766 53.42895508 C-2.17098367 57.52682535 -8.02049912 62.64992027 -14 68 C-15.58271881 69.35488486 -17.16595371 70.70916738 -18.75 72.0625 C-21.27234744 74.21996916 -21.27234744 74.21996916 -23 77 C-23.66 77 -24.32 77 -25 77 C-25.38865234 77.87591797 -25.38865234 77.87591797 -25.78515625 78.76953125 C-27.0901558 81.1655272 -28.53491068 82.73744483 -30.4375 84.6875 C-42.88768163 98.53354286 -51.21874224 115.80189803 -58 133 C-57.26700684 133.09498779 -56.53401367 133.18997559 -55.77880859 133.2878418 C-19.18361821 138.09698981 22.98192576 145.61149469 53.85546875 167.4921875 C56.20115809 169.14143356 58.61830786 170.62589549 61.0625 172.125 C81.79444515 185.29962995 100.86901368 201.63769361 116 221 C117.07701172 222.35158203 117.07701172 222.35158203 118.17578125 223.73046875 C148.45639075 262.72414883 162.01593478 310.53811729 167 359 C167.13277344 360.27101563 167.26554688 361.54203125 167.40234375 362.8515625 C167.71418161 366.56798636 167.89582887 370.27325769 168 374 C168.02723145 374.91507324 168.05446289 375.83014648 168.08251953 376.77294922 C169.07716124 416.46478345 164.14736335 455.87439215 153 494 C152.76845215 494.79937988 152.5369043 495.59875977 152.29833984 496.42236328 C150.664324 501.99459914 148.88050871 507.50634294 147 513 C146.54681396 514.3300708 146.54681396 514.3300708 146.08447266 515.68701172 C137.27621229 541.16409662 125.3486098 565.19849631 111 588 C110.61650391 588.61069336 110.23300781 589.22138672 109.83789062 589.85058594 C102.06081065 602.11444283 93.19583067 613.77296175 84 625 C83.31679688 625.845625 82.63359375 626.69125 81.9296875 627.5625 C73.18286372 638.34711426 64.37052597 648.94423906 54.375 658.59765625 C52.05328733 660.94609916 50.05718034 663.42110176 48 666 C46.92830658 667.01460564 45.82315562 667.99503637 44.6875 668.9375 C41.28452047 671.83539908 38.02824258 674.85217704 34.79101562 677.93139648 C27.67783305 684.68293789 20.32579568 690.88479597 12.52685547 696.82421875 C10.39806004 698.46353419 8.32701264 700.1707845 6.25 701.875 C-28.85743913 729.91535722 -69.44574008 752.5681172 -112 767 C-113.39798828 767.47493896 -113.39798828 767.47493896 -114.82421875 767.95947266 C-177.19687027 788.78297818 -252.15141804 792.53056299 -312.484375 762.7734375 C-314.22460938 761.89558594 -314.22460938 761.89558594 -316 761 C-317.09828125 760.45601562 -318.1965625 759.91203125 -319.328125 759.3515625 C-344.18937379 746.56063015 -365.24346651 726.5576815 -377 701 C-377.66 701 -378.32 701 -379 701 C-379.103125 699.906875 -379.20625 698.81375 -379.3125 697.6875 C-379.72844582 694.2945705 -380.47581015 691.15348814 -381.4375 687.875 C-391.79826602 651.05365017 -377.77726428 615.10386204 -363.22265625 581.6015625 C-345.09592126 539.71440158 -339.27224396 498.50390066 -338.49731445 453.17211914 C-338.4377807 449.70385305 -338.37263284 446.23572673 -338.30664062 442.76757812 C-338.12023921 432.61702158 -337.97639045 422.47265638 -338.01953125 412.3203125 C-338.04732171 403.91806986 -337.77345051 395.57637261 -337.25 387.1875 C-337.20709839 386.49710632 -337.16419678 385.80671265 -337.11999512 385.09539795 C-332.31801814 309.56188786 -306.80399443 243.21801174 -251 191 C-249.03102282 189.28826274 -247.0310216 187.63862948 -245 186 C-247.50927941 184.74536029 -249.53432773 184.69114842 -252.3359375 184.45703125 C-298.8800126 180.23555271 -342.19844678 165.02007234 -385 147 C-385.67405884 146.71688965 -386.34811768 146.4337793 -387.04260254 146.14208984 C-428.13575972 128.87115925 -428.13575972 128.87115925 -435 121 C-436.1593203 116.27991021 -435.80222524 114.33092288 -433.29296875 110.16796875 C-428.94058614 104.23012977 -424.10778317 98.71485662 -419.12109375 93.3046875 C-417.18078608 91.19643423 -415.3030018 89.04930368 -413.4375 86.875 C-407.45331635 80.04180174 -401.04377336 74.07483086 -393.953125 68.3984375 C-391.45589019 66.37026002 -389.02887846 64.28407034 -386.61206055 62.16162109 C-369.91594426 47.62518835 -350.88100583 35.68146701 -331 26 C-331 25.34 -331 24.68 -331 24 C-329.39125 23.7834375 -329.39125 23.7834375 -327.75 23.5625 C-323.81334935 23.02103843 -323.81334935 23.02103843 -320 22 C-319.67 21.34 -319.34 20.68 -319 20 C-317.34765625 19.359375 -317.34765625 19.359375 -315.0625 18.75 C-311.54115208 17.76422583 -308.06942098 16.69958482 -304.61328125 15.5078125 C-303.8339624 15.24000977 -303.05464355 14.97220703 -302.25170898 14.69628906 C-300.69849531 14.15956479 -299.14712455 13.61746928 -297.59790039 13.06933594 C-293.87763155 11.79409439 -290.42897919 10.84528897 -286.5078125 10.4453125 C-285.35023438 10.29835937 -284.19265625 10.15140625 -283 10 C-282.67 9.34 -282.34 8.68 -282 8 C-280.24560547 7.64086914 -280.24560547 7.64086914 -277.9921875 7.47265625 C-274.87262045 7.19335617 -271.83509109 6.8296168 -268.7578125 6.24609375 C-221.14193887 -2.30927444 -172.61856833 7.77697867 -132.76953125 35.265625 C-113.25874907 49.14219679 -97.82619075 66.93381046 -85 87 C-84.27296875 85.52853516 -84.27296875 85.52853516 -83.53125 84.02734375 C-81.74132268 80.41543744 -79.9326129 76.81325523 -78.11572266 73.21484375 C-77.41094511 71.8157755 -76.70963123 70.41495218 -76.01318359 69.01171875 C-70.96862223 58.87537705 -64.88935591 49.96905793 -58 41 C-56.81060917 39.41808655 -55.62268053 37.83507029 -54.4375 36.25 C-54.00308594 35.67765625 -53.56867188 35.1053125 -53.12109375 34.515625 C-52.03296961 33.04457216 -51.01496655 31.52244983 -50 30 C-49.0099366 29.07027288 -47.98512347 28.17685128 -46.9375 27.3125 C-44.91897305 25.63315176 -42.94444256 23.94774955 -41.03125 22.1484375 C-29.42311845 11.27664266 -16.1755255 2.60469254 0 2 C0 1.34 0 0.68 0 0 Z " fill="#FEAA26" transform="translate(619,120)"/>
<path d="M0 0 C9.65746403 1.81077451 16.73264136 3.82747156 23.8125 10.75 C27.87692787 16.78857855 29.7924992 22.53719859 28.5546875 29.8125 C26.1851606 39.15711314 20.38555588 44.09973149 12.28125 49.04980469 C9.7804337 50.52253756 7.26890671 51.97637195 4.75634766 53.42895508 C-2.17098367 57.52682535 -8.02049912 62.64992027 -14 68 C-15.58271881 69.35488486 -17.16595371 70.70916738 -18.75 72.0625 C-21.27234744 74.21996916 -21.27234744 74.21996916 -23 77 C-23.66 77 -24.32 77 -25 77 C-25.38865234 77.87591797 -25.38865234 77.87591797 -25.78515625 78.76953125 C-27.0901558 81.1655272 -28.53491068 82.73744483 -30.4375 84.6875 C-41.24356729 96.70509744 -48.33167432 111.03556383 -54.91601562 125.66088867 C-56.21833936 128.47115076 -57.60485477 131.23483608 -59 134 C-59.57532974 133.99333817 -60.15065948 133.98667633 -60.74342346 133.97981262 C-66.86184963 133.91220342 -72.980166 133.86769381 -79.09887695 133.83520508 C-81.36682459 133.82033801 -83.63474468 133.80003842 -85.90258789 133.77368164 C-129.33306988 133.28245197 -170.63324104 143.68818643 -209 164 C-209.6585498 164.34788574 -210.31709961 164.69577148 -210.99560547 165.05419922 C-219.60672628 169.64665686 -227.74371712 174.65236353 -235.59765625 180.45825195 C-236.21769531 180.90515381 -236.83773437 181.35205566 -237.4765625 181.8125 C-238.282146 182.40998047 -238.282146 182.40998047 -239.10400391 183.01953125 C-245.43401752 186.29294545 -252.85617943 184.67691982 -259.625 183.9375 C-260.85613525 183.8031958 -262.08727051 183.6688916 -263.35571289 183.53051758 C-305.73582279 178.542247 -345.91433659 163.45562904 -385 147 C-385.67405884 146.71688965 -386.34811768 146.4337793 -387.04260254 146.14208984 C-428.13575972 128.87115925 -428.13575972 128.87115925 -435 121 C-436.1593203 116.27991021 -435.80222524 114.33092288 -433.29296875 110.16796875 C-428.94058614 104.23012977 -424.10778317 98.71485662 -419.12109375 93.3046875 C-417.18078608 91.19643423 -415.3030018 89.04930368 -413.4375 86.875 C-407.45331635 80.04180174 -401.04377336 74.07483086 -393.953125 68.3984375 C-391.45589019 66.37026002 -389.02887846 64.28407034 -386.61206055 62.16162109 C-369.91594426 47.62518835 -350.88100583 35.68146701 -331 26 C-331 25.34 -331 24.68 -331 24 C-329.39125 23.7834375 -329.39125 23.7834375 -327.75 23.5625 C-323.81334935 23.02103843 -323.81334935 23.02103843 -320 22 C-319.67 21.34 -319.34 20.68 -319 20 C-317.34765625 19.359375 -317.34765625 19.359375 -315.0625 18.75 C-311.54115208 17.76422583 -308.06942098 16.69958482 -304.61328125 15.5078125 C-303.8339624 15.24000977 -303.05464355 14.97220703 -302.25170898 14.69628906 C-300.69849531 14.15956479 -299.14712455 13.61746928 -297.59790039 13.06933594 C-293.87763155 11.79409439 -290.42897919 10.84528897 -286.5078125 10.4453125 C-285.35023438 10.29835937 -284.19265625 10.15140625 -283 10 C-282.67 9.34 -282.34 8.68 -282 8 C-280.24560547 7.64086914 -280.24560547 7.64086914 -277.9921875 7.47265625 C-274.87262045 7.19335617 -271.83509109 6.8296168 -268.7578125 6.24609375 C-221.14193887 -2.30927444 -172.61856833 7.77697867 -132.76953125 35.265625 C-113.25874907 49.14219679 -97.82619075 66.93381046 -85 87 C-84.27296875 85.52853516 -84.27296875 85.52853516 -83.53125 84.02734375 C-81.74132268 80.41543744 -79.9326129 76.81325523 -78.11572266 73.21484375 C-77.41094511 71.8157755 -76.70963123 70.41495218 -76.01318359 69.01171875 C-70.96862223 58.87537705 -64.88935591 49.96905793 -58 41 C-56.81060917 39.41808655 -55.62268053 37.83507029 -54.4375 36.25 C-54.00308594 35.67765625 -53.56867188 35.1053125 -53.12109375 34.515625 C-52.03296961 33.04457216 -51.01496655 31.52244983 -50 30 C-49.0099366 29.07027288 -47.98512347 28.17685128 -46.9375 27.3125 C-44.91897305 25.63315176 -42.94444256 23.94774955 -41.03125 22.1484375 C-29.42311845 11.27664266 -16.1755255 2.60469254 0 2 C0 1.34 0 0.68 0 0 Z " fill="#70AB36" transform="translate(619,120)"/>
<path d="M0 0 C1.47823242 -0.0309375 1.47823242 -0.0309375 2.98632812 -0.0625 C8.4160996 -0.09167271 12.62433434 -0.04522167 17.1875 3.25 C20.12958183 7.21008638 20.59165096 10.19845354 20.69921875 15.08203125 C20.73466797 16.37431641 20.77011719 17.66660156 20.80664062 18.99804688 C20.82973681 20.35285934 20.85251935 21.70767718 20.875 23.0625 C20.90819761 24.43688117 20.94268953 25.81123171 20.97851562 27.18554688 C21.06091264 30.54028234 21.13009395 33.89475904 21.1875 37.25 C21.77015625 37.37004395 22.3528125 37.49008789 22.953125 37.61376953 C50.23840994 43.31429191 74.04964066 51.52585193 90.20703125 75.890625 C95.16057344 84.29308315 99.22051362 93.32159129 98.1875 103.25 C96.86900172 107.13224494 95.99694321 108.75940627 92.4765625 110.89306641 C88.94411112 112.35041237 86.49018399 112.63677623 82.6875 112.6484375 C81.470625 112.65230469 80.25375 112.65617188 79 112.66015625 C77.741875 112.64855469 76.48375 112.63695312 75.1875 112.625 C73.929375 112.63660156 72.67125 112.64820313 71.375 112.66015625 C70.158125 112.65628906 68.94125 112.65242187 67.6875 112.6484375 C66.03234375 112.64336182 66.03234375 112.64336182 64.34375 112.63818359 C60.71679363 112.19210836 58.30780587 111.12664029 55.1875 109.25 C53.4765625 106.86328125 53.4765625 106.86328125 52.1875 104.25 C45.47131132 91.77417073 37.44932338 85.31791108 24.1875 80.25 C23.3109375 79.90839844 22.434375 79.56679688 21.53125 79.21484375 C6.48142355 74.45644274 -12.63519404 75.24079643 -26.8125 82.25 C-34.40131509 86.52696272 -42.14500941 92.5359979 -45.33984375 100.97265625 C-46.95643329 108.7616786 -47.21650356 117.54323208 -43.078125 124.5390625 C-42.45164062 125.38597656 -42.45164062 125.38597656 -41.8125 126.25 C-41.2040625 127.07371094 -40.595625 127.89742187 -39.96875 128.74609375 C-28.05681765 142.57860939 -5.17206544 145.92774247 11.60351562 150.31152344 C81.62577256 168.64705175 81.62577256 168.64705175 98.375 195.0625 C108.1773989 212.15788367 109.9241306 233.06364669 105.15625 252.046875 C98.89119891 272.76196329 84.86279559 287.87599308 66.1875 298.25 C54.16254169 304.64807758 41.60413484 308.02184292 28.25268555 310.29956055 C24.93495902 310.63635558 24.93495902 310.63635558 22.1875 312.25 C22.06603718 313.92415625 22.00782206 315.60298447 21.9765625 317.28125 C21.94820312 318.32023437 21.91984375 319.35921875 21.890625 320.4296875 C21.83928061 322.6118242 21.79480279 324.79413529 21.7578125 326.9765625 C21.56854432 333.39590822 21.11350817 339.42437382 18.1875 345.25 C12.92170961 349.6843498 6.41650803 349.45381813 -0.1875 349.5 C-1.28191406 349.5309375 -1.28191406 349.5309375 -2.3984375 349.5625 C-8.2756787 349.60448029 -12.97835172 348.51731862 -17.6875 344.75 C-20.23845795 341.34872273 -20.004075 337.6970464 -20.12890625 333.61328125 C-20.17080078 332.31455078 -20.21269531 331.01582031 -20.25585938 329.67773438 C-20.29566987 328.30599239 -20.33538216 326.93424756 -20.375 325.5625 C-20.41820835 324.17902355 -20.46182339 322.79555973 -20.50585938 321.41210938 C-20.61208028 318.02484281 -20.71412358 314.63750201 -20.8125 311.25 C-24.29971368 309.79518855 -27.6237778 308.81156425 -31.33178711 308.05908203 C-55.20109846 303.13854457 -78.36562298 291.04709364 -92.56640625 270.7421875 C-98.30768201 261.56190196 -103.13565489 251.29546691 -101.8125 240.25 C-99.93503542 236.02570469 -98.57256273 234.61566592 -94.40234375 232.609375 C-88.96518456 230.69495187 -83.58110901 230.81116534 -77.875 230.875 C-76.84181641 230.86339844 -75.80863281 230.85179687 -74.74414062 230.83984375 C-67.76156755 230.86637664 -60.14336434 231.01926185 -54.86328125 236.140625 C-53.74060512 238.39432429 -52.82922127 240.62214174 -52 243 C-47.66051822 253.97728169 -39.6106477 261.16966626 -28.94580078 266.11572266 C-11.06524647 273.52530544 12.07388261 274.43794341 30.1875 267.25 C40.93473125 262.68336507 48.50440357 257.67471605 54.1875 247.25 C57.10096085 239.96137609 57.4967345 231.94671989 55.3828125 224.36328125 C50.64637482 213.69813019 40.45650597 208.65862154 30.1875 204.25 C27.46358199 203.22660438 24.71485624 202.29090909 21.953125 201.375 C21.17185745 201.11549057 20.3905899 200.85598114 19.58564758 200.58860779 C11.7378594 198.02958153 3.78904295 195.9448202 -4.21127319 193.92453003 C-73.07082974 176.4643451 -73.07082974 176.4643451 -89.8125 148.96484375 C-98.33853385 132.92524258 -100.52718555 114.93558045 -96.1875 97.25 C-92.7297484 86.09089257 -87.59528562 76.93938251 -79.8125 68.25 C-79.07257812 67.41597656 -78.33265625 66.58195312 -77.5703125 65.72265625 C-65.12815665 52.48501831 -49.42183219 45.23570268 -32.125 40.4375 C-31.02994141 40.12619141 -29.93488281 39.81488281 -28.80664062 39.49414062 C-26.14400062 38.73836944 -23.47942635 37.99047408 -20.8125 37.25 C-20.79791748 36.42798096 -20.78333496 35.60596191 -20.76831055 34.7590332 C-20.69373667 31.02638677 -20.59710488 27.29462541 -20.5 23.5625 C-20.47744141 22.26892578 -20.45488281 20.97535156 -20.43164062 19.64257812 C-20.3784668 17.77182617 -20.3784668 17.77182617 -20.32421875 15.86328125 C-20.29803467 14.71641846 -20.27185059 13.56955566 -20.24487305 12.38793945 C-19.60175883 7.72054984 -17.42109661 4.25716384 -13.8125 1.25 C-9.26701791 -0.2651607 -4.76154489 0.02462337 0 0 Z " fill="#295532" transform="translate(637.8125,417.75)"/>
<path d="M0 0 C4.67609984 3.62622218 8.18871957 7.42991154 11.6875 12.1875 C12.20151367 12.88166016 12.71552734 13.57582031 13.24511719 14.29101562 C41.76612813 53.44845992 55.08874115 99.24604012 60 147 C60.13277344 148.27101563 60.26554688 149.54203125 60.40234375 150.8515625 C60.71418161 154.56798636 60.89582887 158.27325769 61 162 C61.02723145 162.91507324 61.05446289 163.83014648 61.08251953 164.77294922 C62.07716124 204.46478345 57.14736335 243.87439215 46 282 C45.76845215 282.79937988 45.5369043 283.59875977 45.29833984 284.42236328 C43.664324 289.99459914 41.88050871 295.50634294 40 301 C39.54681396 302.3300708 39.54681396 302.3300708 39.08447266 303.68701172 C30.27621229 329.16409662 18.3486098 353.19849631 4 376 C3.61650391 376.61069336 3.23300781 377.22138672 2.83789062 377.85058594 C-4.93918935 390.11444283 -13.80416933 401.77296175 -23 413 C-23.68320312 413.845625 -24.36640625 414.69125 -25.0703125 415.5625 C-33.81713628 426.34711426 -42.62947403 436.94423906 -52.625 446.59765625 C-54.94671267 448.94609916 -56.94281966 451.42110176 -59 454 C-60.07169342 455.01460564 -61.17684438 455.99503637 -62.3125 456.9375 C-65.71547953 459.83539908 -68.97175742 462.85217704 -72.20898438 465.93139648 C-79.32216695 472.68293789 -86.67420432 478.88479597 -94.47314453 484.82421875 C-96.60193996 486.46353419 -98.67298736 488.1707845 -100.75 489.875 C-135.85743913 517.91535722 -176.44574008 540.5681172 -219 555 C-220.39798828 555.47493896 -220.39798828 555.47493896 -221.82421875 555.95947266 C-284.19687027 576.78297818 -359.15141804 580.53056299 -419.484375 550.7734375 C-421.22460938 549.89558594 -421.22460938 549.89558594 -423 549 C-424.09828125 548.45601562 -425.1965625 547.91203125 -426.328125 547.3515625 C-446.02211357 537.21914809 -463.50748622 522.34837961 -476 504 C-475.67 503.34 -475.34 502.68 -475 502 C-472.5 503.375 -472.5 503.375 -470 505 C-470 505.66 -470 506.32 -470 507 C-469.43796875 507.268125 -468.8759375 507.53625 -468.296875 507.8125 C-466 509 -466 509 -463.828125 510.375 C-424.17919393 535.3658414 -374.70017247 539.9984485 -329 539 C-328.28054199 538.99129883 -327.56108398 538.98259766 -326.81982422 538.97363281 C-298.15376995 538.55703769 -269.04431878 530.1019221 -242.45849609 519.93310547 C-240.23635538 519.08970708 -238.00716616 518.27383766 -235.76953125 517.47265625 C-200.51421536 504.78353711 -167.3956945 485.75562281 -137 464 C-136.20899902 463.4342627 -135.41799805 462.86852539 -134.60302734 462.28564453 C-117.08176252 450.01992799 -117.08176252 450.01992799 -101 436 C-98.79217441 435.95264717 -96.5830202 435.96281229 -94.375 436 C-89.44400081 436.04025305 -84.83889805 435.92169487 -80 435 C-80 434.67 -80 434.34 -80 434 C-79.38511719 433.88785156 -78.77023437 433.77570313 -78.13671875 433.66015625 C-77.32847656 433.46292969 -76.52023437 433.26570313 -75.6875 433.0625 C-74.88699219 432.88847656 -74.08648438 432.71445312 -73.26171875 432.53515625 C-69.49056077 429.97545834 -68.8612705 426.33523063 -68 422 C-67.59161444 417.85339497 -67.49066688 413.72723891 -67.4375 409.5625 C-67.40317484 407.41781299 -67.36063412 405.27323654 -67.30859375 403.12890625 C-67.29626709 402.19119385 -67.28394043 401.25348145 -67.27124023 400.28735352 C-67 398 -67 398 -65 396 C-62.77612305 395.39331055 -62.77612305 395.39331055 -60.01171875 394.88671875 C-59.00149658 394.69352051 -57.99127441 394.50032227 -56.95043945 394.30126953 C-55.87366943 394.09872559 -54.79689941 393.89618164 -53.6875 393.6875 C-29.46081417 388.86035827 -6.44000659 377.86644609 7.75 356.75 C18.59868423 338.72759185 20.88682054 317.58994192 15.9375 297.29296875 C14.64799906 292.76359671 13.21983816 288.28743356 11.671875 283.83984375 C10.51258527 278.93982262 12.2235794 275.18808504 13.86547852 270.53613281 C28.24011135 229.63473459 34.20912879 185.38897435 34.25 142.125 C34.25100708 141.37020355 34.25201416 140.6154071 34.25305176 139.83773804 C34.24045213 125.71967276 33.09952687 111.96818846 31 98 C30.86078125 97.00000977 30.7215625 96.00001953 30.578125 94.96972656 C26.62266567 66.61311188 17.83592546 40.11785244 5.79345703 14.2175293 C5.42849121 13.43031494 5.06352539 12.64310059 4.6875 11.83203125 C4.36136719 11.13827393 4.03523438 10.4445166 3.69921875 9.72973633 C3 8 3 8 3 6 C2.34 6 1.68 6 1 6 C0.34 4.35 -0.32 2.7 -1 1 C-0.67 0.67 -0.34 0.34 0 0 Z " fill="#FD9721" transform="translate(726,332)"/>
<path d="M0 0 C6.44714786 -0.27411343 11.88876828 0.50825273 16.87109375 4.8515625 C22.28402891 10.62762957 24.99060838 16.16366362 25.296875 24.08984375 C24.55378199 44.43201477 7.73016538 62.93974987 -4.9609375 77.45703125 C-18.86925385 93.39453127 -30.00588837 110.88582177 -40.78686523 129.05541992 C-58.71171972 159.2576498 -58.71171972 159.2576498 -72.078125 163.15234375 C-76.2493088 163.89067373 -79.32732518 163.51272766 -83.203125 161.65234375 C-89.06348181 156.5563813 -93.26545076 151.08247144 -94.078125 143.15234375 C-96.51585019 102.18796169 -77.61562913 62.49918839 -50.95166016 32.42041016 C-37.98701937 18.09155548 -20.29593113 1.48785961 0 0 Z " fill="#FEC152" transform="translate(434.078125,330.84765625)"/>
<path d="M0 0 C9.65746403 1.81077451 16.73264136 3.82747156 23.8125 10.75 C27.87692787 16.78857855 29.7924992 22.53719859 28.5546875 29.8125 C26.1851606 39.15711314 20.38555588 44.09973149 12.28125 49.04980469 C9.7804337 50.52253756 7.26890671 51.97637195 4.75634766 53.42895508 C-2.17098367 57.52682535 -8.02049912 62.64992027 -14 68 C-15.58271881 69.35488486 -17.16595371 70.70916738 -18.75 72.0625 C-21.27234744 74.21996916 -21.27234744 74.21996916 -23 77 C-23.66 77 -24.32 77 -25 77 C-25.25910156 77.58394531 -25.51820313 78.16789062 -25.78515625 78.76953125 C-27.0901558 81.1655272 -28.53491068 82.73744483 -30.4375 84.6875 C-41.24356729 96.70509744 -48.33167432 111.03556383 -54.91601562 125.66088867 C-56.21741235 128.46915039 -57.61580584 131.23161168 -59 134 C-71.21 133.67 -83.42 133.34 -96 133 C-89.68107388 97.73631553 -78.63333328 67.11208784 -56.19921875 39.0078125 C-53.91121511 36.07626432 -53.91121511 36.07626432 -52.45703125 32.7421875 C-50.83936988 29.69768808 -50.06888603 29.2762292 -47 28 C-45.85557732 26.89437131 -44.75484256 25.74271097 -43.6875 24.5625 C-32.6326836 13.28165575 -18.15069994 2.70117118 -1.94921875 2.0078125 C-1.30597656 2.00523438 -0.66273438 2.00265625 0 2 C0 1.34 0 0.68 0 0 Z " fill="#5A4732" transform="translate(619,120)"/>
<path d="M0 0 C1.29292969 0.25136719 2.58585938 0.50273437 3.91796875 0.76171875 C6.97492669 1.42658072 9.98214509 2.17813461 13 3 C14.28003906 3.31904297 14.28003906 3.31904297 15.5859375 3.64453125 C18.41112741 4.36991785 21.20330907 5.17122022 24 6 C24.61375488 6.17837402 25.22750977 6.35674805 25.85986328 6.54052734 C48.9626043 13.36240081 71.40138655 24.37758383 89.765625 40.08984375 C91.94089009 42.02316158 91.94089009 42.02316158 94.2734375 43.53125 C96 45 96 45 96.375 48.5625 C96.13762525 53.46520164 95.09544763 58.22697819 94 63 C93.67 62.01 93.34 61.02 93 60 C91.35786209 59.27501358 89.68497933 58.61892397 88 58 C86.07113217 56.8748271 84.15602493 55.72594923 82.25 54.5625 C67.3671753 45.80850376 50.65185679 38.59480696 34 34 C33.13084961 33.75942871 32.26169922 33.51885742 31.36621094 33.27099609 C8.87712074 27.15169575 -13.19905332 23.91283977 -36.5234375 23.76171875 C-37.77573654 23.75197021 -39.02803558 23.74222168 -40.31828308 23.73217773 C-44.3372276 23.7072854 -48.355993 23.69375785 -52.375 23.6875 C-53.05903271 23.68620213 -53.74306541 23.68490425 -54.44782639 23.68356705 C-73.75682445 23.65579724 -92.70756793 23.90249294 -111.75927734 27.40576172 C-115.13063979 28.02395489 -118.50855417 28.56573033 -121.89453125 29.09765625 C-149.25210205 33.52781525 -176.18395504 40.57907496 -202.6484375 48.73828125 C-203.57615967 49.0223584 -204.50388184 49.30643555 -205.4597168 49.59912109 C-207.23693713 50.14534634 -209.01198355 50.69871177 -210.78442383 51.26025391 C-216.77853138 53.11073431 -216.77853138 53.11073431 -219 52 C-211.42007847 46.25894971 -203.63214572 41.20879309 -195.375 36.5 C-194.23200439 35.84636475 -193.08900879 35.19272949 -191.91137695 34.51928711 C-161.7795512 17.45499738 -128.95378749 6.50703829 -95 0 C-94.08250977 -0.18079102 -93.16501953 -0.36158203 -92.21972656 -0.54785156 C-63.10008854 -6.01117791 -29.0507047 -5.67913438 0 0 Z " fill="#428A3F" transform="translate(432,179)"/>
<path d="M0 0 C0.33 0 0.66 0 1 0 C0.67 3.63 0.34 7.26 0 11 C16.335 11.99 16.335 11.99 33 13 C33.33 11.35 33.66 9.7 34 8 C34.66 7.67 35.32 7.34 36 7 C35.125 13.875 35.125 13.875 34 15 C31.25905792 15.01696765 28.54652568 14.97095184 25.80859375 14.87890625 C24.57883568 14.84348976 24.57883568 14.84348976 23.32423401 14.80735779 C20.69515461 14.73053389 18.06635605 14.64659081 15.4375 14.5625 C13.65951914 14.50929803 11.8815244 14.45655752 10.10351562 14.40429688 C5.73549787 14.27489358 1.36771918 14.13910335 -3 14 C-2.01 9.38 -1.02 4.76 0 0 Z " fill="#30242F" transform="translate(526,239)"/>
<path d="M0 0 C0.67095703 0.58007812 0.67095703 0.58007812 1.35546875 1.171875 C7.01240278 6.04479898 12.4412539 10.39911979 19 14 C16 15 16 15 13.4765625 13.77734375 C8.13065351 10.32813398 3.58280097 7.31242902 0 2 C0 1.34 0 0.68 0 0 Z " fill="#EDBE26" transform="translate(595,542)"/>
<path d="M0 0 C1.1055189 0.93590504 2.20935453 1.87379858 3.3125 2.8125 C3.92738281 3.33457031 4.54226563 3.85664063 5.17578125 4.39453125 C6.85424679 5.87172469 8.43882034 7.40039131 10 9 C9.67 9.66 9.34 10.32 9 11 C3.83823591 8.34936438 1.81588958 5.44766873 0 0 Z " fill="#F9A024" transform="translate(716,321)"/>
<path d="M0 0 C0.33 0 0.66 0 1 0 C0.125 6.875 0.125 6.875 -1 8 C-2.99958364 8.04080783 -5.00045254 8.04254356 -7 8 C-6.67 7.34 -6.34 6.68 -6 6 C-4.68 6 -3.36 6 -2 6 C-1.855625 5.195625 -1.71125 4.39125 -1.5625 3.5625 C-1 1 -1 1 0 0 Z " fill="#44302A" transform="translate(561,246)"/>
<path d="M0 0 C1.98 0 3.96 0 6 0 C6 0.33 6 0.66 6 1 C4.02 1 2.04 1 0 1 C0 0.67 0 0.34 0 0 Z " fill="#EE9521" transform="translate(368,902)"/>
<path d="M0 0 C3 1 3 1 3 1 Z " fill="#EE9520" transform="translate(437,903)"/>
<path d="M0 0 C3 1 3 1 3 1 Z " fill="#ED9522" transform="translate(443,902)"/>
<path d="M0 0 C0.66 0.66 1.32 1.32 2 2 C1.34 2 0.68 2 0 2 C0 1.34 0 0.68 0 0 Z " fill="#EC9924" transform="translate(256,846)"/>
<path d="" fill="#F0A026" transform="translate(0,0)"/>
<path d="M0 0 C3 1 3 1 3 1 Z " fill="#72A537" transform="translate(272,152)"/>
<path d="M0 0 C3 1 3 1 3 1 Z " fill="#5E4732" transform="translate(630,121)"/>
<path d="M0 0 C2 1 2 1 2 1 Z " fill="#EE9520" transform="translate(336,895)"/>
<path d="" fill="#EC9823" transform="translate(0,0)"/>
<path d="" fill="#F5A128" transform="translate(0,0)"/>
<path d="" fill="#F09925" transform="translate(0,0)"/>
<path d="" fill="#87AE35" transform="translate(0,0)"/>
<path d="M0 0 C2 1 2 1 2 1 Z " fill="#F3A52A" transform="translate(644,272)"/>
<path d="M0 0 C2 1 2 1 2 1 Z " fill="#F2A22B" transform="translate(622,264)"/>
<path d="M0 0 C2 1 2 1 2 1 Z " fill="#E49829" transform="translate(589,256)"/>
<path d="M0 0 C2 1 2 1 2 1 Z " fill="#6E5539" transform="translate(621,175)"/>
<path d="M0 0 C2 1 2 1 2 1 Z " fill="#71A739" transform="translate(454,136)"/>
<path d="M0 0 C2 1 2 1 2 1 Z " fill="#6EA436" transform="translate(430,128)"/>
<path d="M0 0 C2 1 2 1 2 1 Z " fill="#614D34" transform="translate(616,120)"/>
<path d="" fill="#F09721" transform="translate(0,0)"/>
<path d="" fill="#EC941F" transform="translate(0,0)"/>
<path d="" fill="#ED9520" transform="translate(0,0)"/>
<path d="" fill="#EF9721" transform="translate(0,0)"/>
<path d="" fill="#EB9620" transform="translate(0,0)"/>
<path d="" fill="#F19723" transform="translate(0,0)"/>
<path d="" fill="#EF9723" transform="translate(0,0)"/>
<path d="" fill="#EE9722" transform="translate(0,0)"/>
<path d="" fill="#EE9424" transform="translate(0,0)"/>
<path d="" fill="#EC9521" transform="translate(0,0)"/>
<path d="" fill="#EB9523" transform="translate(0,0)"/>
<path d="" fill="#EB9622" transform="translate(0,0)"/>
<path d="" fill="#EF9723" transform="translate(0,0)"/>
<path d="" fill="#EE9722" transform="translate(0,0)"/>
<path d="" fill="#EC9722" transform="translate(0,0)"/>
<path d="" fill="#F29A23" transform="translate(0,0)"/>
<path d="" fill="#F19624" transform="translate(0,0)"/>
<path d="" fill="#ED9B24" transform="translate(0,0)"/>
<path d="" fill="#EE9B25" transform="translate(0,0)"/>
<path d="" fill="#EE9D26" transform="translate(0,0)"/>
<path d="" fill="#ED9C24" transform="translate(0,0)"/>
<path d="" fill="#EB9B24" transform="translate(0,0)"/>
<path d="" fill="#F1A226" transform="translate(0,0)"/>
<path d="" fill="#F3A227" transform="translate(0,0)"/>
<path d="" fill="#F29F28" transform="translate(0,0)"/>
<path d="" fill="#F5A52A" transform="translate(0,0)"/>
<path d="" fill="#F7A82A" transform="translate(0,0)"/>
<path d="" fill="#FAAA2C" transform="translate(0,0)"/>
<path d="" fill="#F8A92B" transform="translate(0,0)"/>
<path d="" fill="#F19521" transform="translate(0,0)"/>
<path d="" fill="#F7A92B" transform="translate(0,0)"/>
<path d="" fill="#F6A62C" transform="translate(0,0)"/>
<path d="" fill="#F4A82B" transform="translate(0,0)"/>
<path d="" fill="#F7AA2C" transform="translate(0,0)"/>
<path d="" fill="#F3AA2C" transform="translate(0,0)"/>
<path d="" fill="#F6AA2B" transform="translate(0,0)"/>
<path d="" fill="#F29A25" transform="translate(0,0)"/>
<path d="" fill="#EE9926" transform="translate(0,0)"/>
<path d="" fill="#F19923" transform="translate(0,0)"/>
<path d="" fill="#EF9B24" transform="translate(0,0)"/>
<path d="" fill="#EFB12C" transform="translate(0,0)"/>
<path d="" fill="#EE9C28" transform="translate(0,0)"/>
<path d="" fill="#EFB32B" transform="translate(0,0)"/>
<path d="" fill="#D5AE29" transform="translate(0,0)"/>
<path d="" fill="#91B334" transform="translate(0,0)"/>
<path d="" fill="#7FB13B" transform="translate(0,0)"/>
<path d="" fill="#F3A629" transform="translate(0,0)"/>
<path d="" fill="#F4A629" transform="translate(0,0)"/>
<path d="" fill="#7EAC39" transform="translate(0,0)"/>
<path d="" fill="#F5A428" transform="translate(0,0)"/>
<path d="" fill="#F0A22A" transform="translate(0,0)"/>
<path d="" fill="#F3A52A" transform="translate(0,0)"/>
<path d="" fill="#79AC3B" transform="translate(0,0)"/>
<path d="" fill="#F4A52B" transform="translate(0,0)"/>
<path d="" fill="#78AC3C" transform="translate(0,0)"/>
<path d="" fill="#70A83A" transform="translate(0,0)"/>
<path d="" fill="#72A93C" transform="translate(0,0)"/>
<path d="" fill="#EB9D2A" transform="translate(0,0)"/>
<path d="" fill="#946834" transform="translate(0,0)"/>
<path d="" fill="#7D613B" transform="translate(0,0)"/>
<path d="" fill="#6CA135" transform="translate(0,0)"/>
<path d="" fill="#775B3B" transform="translate(0,0)"/>
<path d="" fill="#6CA337" transform="translate(0,0)"/>
<path d="" fill="#6EA335" transform="translate(0,0)"/>
<path d="" fill="#728437" transform="translate(0,0)"/>
<path d="" fill="#6EA437" transform="translate(0,0)"/>
<path d="" fill="#725738" transform="translate(0,0)"/>
<path d="" fill="#6D6934" transform="translate(0,0)"/>
<path d="" fill="#705639" transform="translate(0,0)"/>
<path d="" fill="#6F5E38" transform="translate(0,0)"/>
<path d="" fill="#6FA634" transform="translate(0,0)"/>
<path d="" fill="#6B5E3A" transform="translate(0,0)"/>
<path d="" fill="#6E5337" transform="translate(0,0)"/>
<path d="" fill="#6D5238" transform="translate(0,0)"/>
<path d="" fill="#6B5438" transform="translate(0,0)"/>
<path d="" fill="#685837" transform="translate(0,0)"/>
<path d="" fill="#74A73A" transform="translate(0,0)"/>
<path d="" fill="#71A639" transform="translate(0,0)"/>
<path d="" fill="#695136" transform="translate(0,0)"/>
<path d="" fill="#72A639" transform="translate(0,0)"/>
<path d="" fill="#6DA938" transform="translate(0,0)"/>
<path d="" fill="#695537" transform="translate(0,0)"/>
<path d="" fill="#644E33" transform="translate(0,0)"/>
<path d="" fill="#72A838" transform="translate(0,0)"/>
<path d="" fill="#70A738" transform="translate(0,0)"/>
<path d="" fill="#645037" transform="translate(0,0)"/>
<path d="" fill="#72A539" transform="translate(0,0)"/>
<path d="" fill="#6EA636" transform="translate(0,0)"/>
<path d="" fill="#71A836" transform="translate(0,0)"/>
<path d="" fill="#71A837" transform="translate(0,0)"/>
<path d="" fill="#71A737" transform="translate(0,0)"/>
<path d="" fill="#71A837" transform="translate(0,0)"/>
<path d="" fill="#634E37" transform="translate(0,0)"/>
<path d="" fill="#634E37" transform="translate(0,0)"/>
<path d="" fill="#6FA636" transform="translate(0,0)"/>
<path d="" fill="#70A736" transform="translate(0,0)"/>
<path d="" fill="#6FA537" transform="translate(0,0)"/>
<path d="" fill="#5D4832" transform="translate(0,0)"/>
<path d="" fill="#624D34" transform="translate(0,0)"/>
<path d="" fill="#5E4832" transform="translate(0,0)"/>
</svg>
